<svg width="96" height="96" viewBox="0 0 96 96" fill="none" xmlns="http://www.w3.org/2000/svg">
<g filter="url(#filter0_d_27849_3835)">
<circle cx="48" cy="47" r="44" fill="white"/>
</g>
<path d="M46.5 26V24.5C46.5 24.1022 46.658 23.7206 46.9393 23.4393C47.2206 23.158 47.6022 23 48 23C48.3978 23 48.7794 23.158 49.0607 23.4393C49.342 23.7206 49.5 24.1022 49.5 24.5V26C49.5 26.3978 49.342 26.7794 49.0607 27.0607C48.7794 27.342 48.3978 27.5 48 27.5C47.6022 27.5 47.2206 27.342 46.9393 27.0607C46.658 26.7794 46.5 26.3978 46.5 26ZM61.5 32C61.697 32.0002 61.8922 31.9615 62.0743 31.8862C62.2564 31.8109 62.4218 31.7005 62.5612 31.5612L64.0612 30.0612C64.3427 29.7798 64.5008 29.398 64.5008 29C64.5008 28.602 64.3427 28.2202 64.0612 27.9388C63.7798 27.6573 63.398 27.4992 63 27.4992C62.602 27.4992 62.2202 27.6573 61.9388 27.9388L60.4387 29.4388C60.2287 29.6485 60.0857 29.9159 60.0277 30.207C59.9697 30.4982 59.9994 30.8 60.1131 31.0742C60.2267 31.3484 60.4191 31.5828 60.666 31.7476C60.9129 31.9124 61.2032 32.0002 61.5 32ZM33.4388 31.5612C33.7202 31.8427 34.102 32.0008 34.5 32.0008C34.898 32.0008 35.2798 31.8427 35.5612 31.5612C35.8427 31.2798 36.0008 30.898 36.0008 30.5C36.0008 30.102 35.8427 29.7202 35.5612 29.4388L34.0612 27.9388C33.7798 27.6573 33.398 27.4992 33 27.4992C32.602 27.4992 32.2202 27.6573 31.9388 27.9388C31.6573 28.2202 31.4992 28.602 31.4992 29C31.4992 29.398 31.6573 29.7798 31.9388 30.0612L33.4388 31.5612ZM67.5 56V60.5C67.5 61.2957 67.1839 62.0587 66.6213 62.6213C66.0587 63.1839 65.2957 63.5 64.5 63.5H31.5C30.7044 63.5 29.9413 63.1839 29.3787 62.6213C28.8161 62.0587 28.5 61.2957 28.5 60.5V56C28.5 55.2043 28.8161 54.4413 29.3787 53.8787C29.9413 53.3161 30.7044 53 31.5 53V47C31.4999 44.8226 31.9308 42.6667 32.7679 40.6566C33.6049 38.6465 34.8316 36.8219 36.3771 35.2881C37.9226 33.7543 39.7564 32.5415 41.7728 31.7197C43.7892 30.898 45.9483 30.4834 48.1256 30.5C57.1537 30.5675 64.5 38.0544 64.5 47.1875V53C65.2957 53 66.0587 53.3161 66.6213 53.8787C67.1839 54.4413 67.5 55.2043 67.5 56ZM49.2525 39.4794C52.8131 40.0775 55.5 43.31 55.5 47C55.5 47.3978 55.658 47.7794 55.9393 48.0607C56.2206 48.342 56.6022 48.5 57 48.5C57.3978 48.5 57.7794 48.342 58.0607 48.0607C58.342 47.7794 58.5 47.3978 58.5 47C58.5 41.8625 54.7369 37.3569 49.7475 36.5206C49.5524 36.4861 49.3523 36.4906 49.159 36.5339C48.9656 36.5771 48.7827 36.6582 48.6208 36.7725C48.459 36.8869 48.3214 37.0321 48.216 37.1999C48.1106 37.3677 48.0395 37.5548 48.0068 37.7502C47.9741 37.9456 47.9805 38.1456 48.0255 38.3386C48.0706 38.5315 48.1534 38.7137 48.2692 38.8745C48.385 39.0352 48.5315 39.1715 48.7003 39.2753C48.8691 39.3791 49.0568 39.4485 49.2525 39.4794ZM64.5 60.5V56H31.5V60.5H64.5Z" fill="#F26769"/>
<defs>
<filter id="filter0_d_27849_3835" x="0" y="0" width="96" height="96" filterUnits="userSpaceOnUse" color-interpolation-filters="sRGB">
<feFlood flood-opacity="0" result="BackgroundImageFix"/>
<feColorMatrix in="SourceAlpha" type="matrix" values="0 0 0 0 0 0 0 0 0 0 0 0 0 0 0 0 0 0 127 0" result="hardAlpha"/>
<feOffset dy="1"/>
<feGaussianBlur stdDeviation="2"/>
<feComposite in2="hardAlpha" operator="out"/>
<feColorMatrix type="matrix" values="0 0 0 0 0 0 0 0 0 0 0 0 0 0 0 0 0 0 0.25 0"/>
<feBlend mode="normal" in2="BackgroundImageFix" result="effect1_dropShadow_27849_3835"/>
<feBlend mode="normal" in="SourceGraphic" in2="effect1_dropShadow_27849_3835" result="shape"/>
</filter>
</defs>
</svg>
