<svg width="848" height="247" viewBox="0 0 848 247" fill="none" xmlns="http://www.w3.org/2000/svg">
<path d="M287.56 182.52V162.04H337.32V138.36H287.56V119.48H344.04V95H256.2V207H346.12V182.52H287.56ZM357.055 173.08H403.775V149.72H357.055V173.08ZM422.606 207H507.726V181.88H454.286V95H422.606V207ZM650.503 207L650.183 95H624.103L585.703 159.64L546.343 95H520.263V207H549.543V149.24L578.183 195.96H592.263L621.063 147.64L621.383 207H650.503ZM672.919 207H704.599V95H672.919V207ZM766.498 209.24C799.778 209.24 816.098 192.6 816.098 173.08C816.098 131.8 752.578 144.6 752.578 127.48C752.578 121.88 757.378 117.4 770.658 117.4C780.418 117.4 790.978 120.28 801.698 126.04L811.458 102.52C800.417 96.12 785.378 92.76 770.818 92.76C737.538 92.76 721.217 109.08 721.217 129.08C721.217 170.68 784.898 157.72 784.898 175.48C784.898 180.92 779.778 184.6 766.658 184.6C753.698 184.6 739.618 180.12 729.698 173.56L719.298 196.92C729.858 204.28 748.098 209.24 766.498 209.24Z" fill="#32A583"/>
<mask id="mask0_764_60" style="mask-type:alpha" maskUnits="userSpaceOnUse" x="0" y="0" width="191" height="207">
<path d="M92.16 194.37C93.32 191.07 95.18 188.43 95.18 184.94C95.18 179.4 98.46 176.38 99.88 172.34C105.61 155.96 111.35 139.59 117.08 123.21C126.01 107.97 134.94 92.73 143.87 77.48L177.4 80.29L179.82 75.91L181.83 72.23L181.25 71.71L190.02 57.95L125.86 0L0 113.39L80.76 206.42L92.16 194.38V194.37Z" fill="white"/>
</mask>
<g mask="url(#mask0_764_60)">
<path d="M147.749 200.14L158.319 198.19L157.999 188.16L157.899 184.87L160.989 183.71C162.599 183.11 164.169 182.44 165.669 181.73C167.299 180.96 168.819 180.16 170.199 179.35L173.009 177.71L175.479 179.85L183.069 186.43L191.269 179.44L185.959 170.88L184.229 168.1L186.309 165.57C187.329 164.32 188.359 162.96 189.369 161.48H189.389C190.339 160.09 191.249 158.65 192.099 157.16L193.719 154.32L196.929 154.94L206.819 156.85L210.429 146.7L201.569 141.95L198.679 140.4L199.219 137.17C199.489 135.55 199.689 133.86 199.829 132.11C199.959 130.47 200.019 128.76 200.009 127L199.989 123.72L203.099 122.64L212.589 119.36L210.639 108.79L200.609 109.11L197.319 109.21L196.159 106.12C195.559 104.51 194.889 102.94 194.179 101.44C193.399 99.8098 192.599 98.2898 191.799 96.9098L190.159 94.0998L192.299 91.6298L198.889 84.0298L191.899 75.8298L183.329 81.1398L180.549 82.8698L178.019 80.7898C176.699 79.7098 175.339 78.6898 173.949 77.7298L173.929 77.7098C172.539 76.7498 171.089 75.8498 169.609 74.9998L166.769 73.3798L167.389 70.1698L169.299 60.2698L159.149 56.6598L154.399 65.5198L152.849 68.4098L149.639 67.8798C148.059 67.6198 146.359 67.4098 144.559 67.2698C142.899 67.1398 141.199 67.0698 139.479 67.0798L136.179 67.0998L135.099 63.9898L131.819 54.4998L121.249 56.4498L121.569 66.4798L121.669 69.7698L118.579 70.9298C116.969 71.5298 115.409 72.1998 113.899 72.9098C112.259 73.6898 110.749 74.4798 109.359 75.2898L106.549 76.9298L104.079 74.7898L96.4891 68.1998L88.2891 75.1898L93.5991 83.7498L95.3191 86.5298L93.2391 89.0598C92.1491 90.3898 91.1291 91.7498 90.1691 93.1298V93.1498C89.1591 94.6198 88.2491 96.0698 87.4491 97.4698L85.8291 100.31L82.6191 99.6898L72.7291 97.7798L69.1191 107.93L77.9791 112.68L80.8691 114.23L80.3291 117.45C80.0591 119.07 79.8591 120.76 79.7191 122.51C79.5891 124.17 79.5191 125.87 79.5391 127.59L79.5591 130.89L76.4491 131.96L66.9591 135.24L68.9091 145.81L78.9391 145.49L82.2291 145.39L83.3891 148.48C83.9891 150.09 84.6591 151.66 85.3691 153.16C86.1391 154.79 86.9391 156.31 87.7491 157.69L89.3891 160.5L87.2491 162.97L80.6591 170.57L87.6491 178.77L95.1491 174.12V184.89C96.3991 185.91 104.139 175.86 105.599 176.87C107.079 177.89 108.519 178.8 109.929 179.6L112.769 181.23L112.149 184.44L110.239 194.34L120.389 197.95L125.139 189.09L126.679 186.21L129.889 186.74C131.469 187 133.169 187.21 134.979 187.35C136.639 187.48 138.339 187.55 140.059 187.54L143.359 187.52L144.439 190.63L147.719 200.12L147.749 200.14ZM163.859 206.5L141.659 210.59L140.369 206.86L136.849 196.67C135.999 196.63 135.139 196.58 134.289 196.51C133.439 196.44 132.579 196.35 131.699 196.25L126.609 205.76L124.749 209.22L121.059 207.91L103.509 201.68L99.7891 200.36L100.529 196.51L102.579 185.9C101.829 185.43 101.109 184.95 100.419 184.48C99.7291 184.01 99.0391 183.51 98.3391 182.98L89.1591 188.68L85.8291 190.74L83.2691 187.74L71.1891 173.56L68.6491 170.58L71.2191 167.61L78.2891 159.46C77.8791 158.68 77.4891 157.9 77.1291 157.14C76.7591 156.37 76.4091 155.59 76.0691 154.8L65.2891 155.14L61.3391 155.27L56.5391 129.2L70.4591 124.39C70.4991 123.54 70.5491 122.68 70.6191 121.83C70.6891 120.98 70.7691 120.12 70.8791 119.25L61.3791 114.16L57.9091 112.3L59.2291 108.6L65.4691 91.0499L66.7791 87.3498L70.6391 88.0898L81.2491 90.1398C81.7191 89.3998 82.1891 88.6798 82.6691 87.9898H82.6791C83.1691 87.2898 83.6691 86.5898 84.1691 85.9098L78.4691 76.7198L76.3991 73.3798L79.3891 70.8298L93.5691 58.7498L96.5591 56.1998L99.5291 58.7798L107.679 65.8498C108.459 65.4398 109.239 65.0498 110.009 64.6798C110.779 64.3098 111.559 63.9598 112.339 63.6198L111.999 52.8398L111.869 48.8898L137.939 44.0898L139.229 47.8198L142.749 58.0098C143.599 58.0498 144.459 58.0998 145.309 58.1698C146.159 58.2398 147.019 58.3298 147.899 58.4298L152.989 48.9198L154.839 45.4598L176.079 52.9998L179.799 54.3198L179.059 58.1698L177.009 68.7898C177.729 69.2498 178.439 69.7198 179.149 70.1998H179.169C179.869 70.6998 180.559 71.1898 181.239 71.6998L190.429 65.9998L193.759 63.9398L196.319 66.9398L208.399 81.1198L210.939 84.0998L208.369 87.0598L201.299 95.2098C201.709 95.9898 202.099 96.7698 202.469 97.5398C202.839 98.3098 203.189 99.0898 203.529 99.8698L218.249 99.3998L223.049 125.47L219.319 126.76L209.129 130.28C209.089 131.13 209.039 131.99 208.969 132.85C208.899 133.7 208.819 134.56 208.709 135.43L218.219 140.52L221.689 142.38L220.379 146.08L214.139 163.63L212.819 167.33L208.959 166.59L198.339 164.54C197.879 165.26 197.409 165.98 196.919 166.68H196.929C196.449 167.38 195.949 168.08 195.429 168.78L201.129 177.96L203.199 181.3L200.209 183.85L183.049 198.48L180.079 195.9L171.929 188.83C171.149 189.24 170.369 189.63 169.609 189.99C168.839 190.36 168.059 190.71 167.269 191.05L167.609 201.83L167.729 205.78L163.859 206.49V206.5Z" fill="#32A583"/>
</g>
<path opacity="0.65" d="M113.879 148.01C109.909 148.01 106.699 151.37 106.699 155.19C106.699 159.16 109.909 162.37 113.879 162.37C117.849 162.37 121.059 159.16 121.059 155.19C121.059 151.22 117.849 148.01 113.879 148.01Z" fill="#F26769"/>
<path opacity="0.4" d="M113.88 168.49C106.54 168.49 100.43 162.68 100.43 155.35C100.43 148.01 106.39 142.05 113.73 142.05C116.79 142.05 119.54 143.12 121.83 144.8L124.93 142.28V107.06L95.1797 101.6V206.02L124.93 195.09V162.59C122.54 166.15 118.48 168.49 113.89 168.49H113.88Z" fill="#32A583"/>
<path opacity="0.65" d="M148.58 134.26C152.55 134.26 155.76 130.9 155.76 126.92C155.76 122.95 152.55 119.74 148.58 119.74C147.73 119.74 146.93 119.92 146.18 120.2V133.82C146.93 134.09 147.73 134.26 148.58 134.26Z" fill="#EED116"/>
<path opacity="0.4" d="M161.87 126.921C161.87 129.061 161.41 131.051 160.49 132.731L175.47 144.651C177.67 143.041 180.3 142.001 183.2 141.911V95.5215L146.17 82.7715V113.851C146.95 113.711 147.75 113.621 148.57 113.621C155.91 113.621 161.87 119.581 161.87 126.921Z" fill="#32A583"/>
<path opacity="0.65" d="M176.238 155.191C176.238 159.091 179.338 162.241 183.208 162.351V148.031C179.338 148.151 176.238 151.441 176.238 155.191Z" fill="#EED116"/>
<path opacity="0.4" d="M170.279 155.191C170.279 153.051 170.739 151.061 171.659 149.381L156.839 137.311C154.549 138.991 151.799 140.061 148.739 140.061C147.859 140.061 147.009 139.961 146.189 139.801V224.231L183.219 206.021V168.481C176.049 168.281 170.289 162.411 170.289 155.201L170.279 155.191Z" fill="#32A583"/>
<path opacity="0.4" d="M204.461 68.8105V134.241L206.501 132.581C205.581 130.751 205.121 128.911 205.121 126.771C205.121 119.431 211.081 113.471 218.421 113.471C225.761 113.471 231.721 119.431 231.721 126.771C231.721 134.111 225.761 140.071 218.421 140.071C215.361 140.071 212.611 139.001 210.321 137.321L204.461 142.091V246.081L249.381 209.651V94.9105L204.461 68.8105Z" fill="#32A583"/>
<path opacity="0.65" d="M218.11 134.26C222.08 134.26 225.29 130.9 225.29 126.92C225.29 122.95 222.08 119.74 218.11 119.74C214.14 119.74 210.93 123.1 210.93 127.08C210.93 131.06 214.14 134.26 218.11 134.26Z" fill="#32A583"/>
<path opacity="0.53" d="M191.681 144.65C189.391 142.97 186.641 141.9 183.581 141.9C183.461 141.9 183.341 141.91 183.211 141.92V148.04C183.281 148.04 183.351 148.02 183.421 148.02C187.391 148.02 190.601 151.23 190.601 155.2C190.601 159.17 187.391 162.38 183.421 162.38C183.351 162.38 183.281 162.36 183.211 162.36V168.48C183.331 168.48 183.451 168.5 183.581 168.5C190.921 168.5 196.881 162.54 196.881 155.2C196.881 153.06 196.421 151.23 195.501 149.39L204.461 142.09V134.24L191.681 144.65Z" fill="#32A583"/>
<path opacity="0.53" d="M141.39 127.07C141.39 123.94 143.39 121.22 146.17 120.19V113.85C139.98 114.98 135.27 120.4 135.27 126.92C135.27 129.06 135.73 130.89 136.65 132.73L124.92 142.28V162.59C126.34 160.47 127.17 157.93 127.17 155.19C127.17 153.05 126.71 151.22 125.79 149.38L140.61 137.31C142.24 138.51 144.11 139.39 146.16 139.8V133.82C143.38 132.83 141.38 130.2 141.38 127.08L141.39 127.07Z" fill="#32A583"/>
</svg>
